<mxfile host="app.diagrams.net" agent="Mozilla/5.0 (Windows NT 10.0; Win64; x64) AppleWebKit/537.36 (KHTML, like Gecko) Chrome/139.0.0.0 Safari/537.36" version="28.1.0">
  <diagram name="Page-1" id="58cdce13-f638-feb5-8d6f-7d28b1aa9fa0">
    <mxGraphModel dx="2605" dy="1403" grid="1" gridSize="10" guides="1" tooltips="1" connect="1" arrows="1" fold="1" page="1" pageScale="1" pageWidth="1100" pageHeight="850" background="none" math="0" shadow="0">
      <root>
        <mxCell id="0" />
        <mxCell id="1" parent="0" />
        <mxCell id="H-SZZCASCCpnRG1K_Njf-23" style="edgeStyle=orthogonalEdgeStyle;rounded=0;orthogonalLoop=1;jettySize=auto;html=1;entryX=0;entryY=0.5;entryDx=0;entryDy=0;exitX=0.5;exitY=0.5;exitDx=0;exitDy=0;exitPerimeter=0;" parent="1" source="H-SZZCASCCpnRG1K_Njf-2" target="H-SZZCASCCpnRG1K_Njf-8" edge="1">
          <mxGeometry relative="1" as="geometry">
            <Array as="points">
              <mxPoint x="110" y="578" />
              <mxPoint x="110" y="396" />
            </Array>
          </mxGeometry>
        </mxCell>
        <mxCell id="H-SZZCASCCpnRG1K_Njf-24" style="edgeStyle=orthogonalEdgeStyle;rounded=0;orthogonalLoop=1;jettySize=auto;html=1;entryX=0;entryY=0.5;entryDx=0;entryDy=0;exitX=0.5;exitY=0.5;exitDx=0;exitDy=0;exitPerimeter=0;" parent="1" source="H-SZZCASCCpnRG1K_Njf-2" target="H-SZZCASCCpnRG1K_Njf-9" edge="1">
          <mxGeometry relative="1" as="geometry">
            <Array as="points">
              <mxPoint x="110" y="578" />
              <mxPoint x="110" y="668" />
            </Array>
          </mxGeometry>
        </mxCell>
        <mxCell id="H-SZZCASCCpnRG1K_Njf-25" style="edgeStyle=orthogonalEdgeStyle;rounded=0;orthogonalLoop=1;jettySize=auto;html=1;entryX=0;entryY=0.5;entryDx=0;entryDy=0;exitX=0.5;exitY=0.5;exitDx=0;exitDy=0;exitPerimeter=0;" parent="1" source="H-SZZCASCCpnRG1K_Njf-2" target="H-SZZCASCCpnRG1K_Njf-7" edge="1">
          <mxGeometry relative="1" as="geometry">
            <Array as="points">
              <mxPoint x="110" y="578" />
              <mxPoint x="110" y="160" />
            </Array>
          </mxGeometry>
        </mxCell>
        <mxCell id="H-SZZCASCCpnRG1K_Njf-2" value="User" style="shape=umlActor;verticalLabelPosition=bottom;verticalAlign=top;html=1;fontSize=17;" parent="1" vertex="1">
          <mxGeometry x="20" y="548" width="30" height="60" as="geometry" />
        </mxCell>
        <mxCell id="Vhi15tNVgUVpk-Ej3HNA-4" value="Turtlebot Application" style="swimlane;whiteSpace=wrap;html=1;startSize=23;fontSize=17;" parent="1" vertex="1">
          <mxGeometry x="80" y="20" width="790" height="1240" as="geometry" />
        </mxCell>
        <mxCell id="Vhi15tNVgUVpk-Ej3HNA-21" value="Select height" style="ellipse;whiteSpace=wrap;html=1;fontSize=17;" parent="Vhi15tNVgUVpk-Ej3HNA-4" vertex="1">
          <mxGeometry x="340" y="613" width="140" height="70" as="geometry" />
        </mxCell>
        <mxCell id="H-SZZCASCCpnRG1K_Njf-10" value="Stop" style="ellipse;whiteSpace=wrap;html=1;fontSize=17;" parent="Vhi15tNVgUVpk-Ej3HNA-4" vertex="1">
          <mxGeometry x="643" y="102" width="140" height="70" as="geometry" />
        </mxCell>
        <mxCell id="H-SZZCASCCpnRG1K_Njf-9" value="Adjust pen height" style="ellipse;whiteSpace=wrap;html=1;fontSize=17;" parent="Vhi15tNVgUVpk-Ej3HNA-4" vertex="1">
          <mxGeometry x="60" y="613" width="140" height="70" as="geometry" />
        </mxCell>
        <mxCell id="H-SZZCASCCpnRG1K_Njf-8" value="Connect turtlebot" style="ellipse;whiteSpace=wrap;html=1;fontSize=17;" parent="Vhi15tNVgUVpk-Ej3HNA-4" vertex="1">
          <mxGeometry x="60" y="341" width="140" height="70" as="geometry" />
        </mxCell>
        <mxCell id="Vhi15tNVgUVpk-Ej3HNA-29" value="&amp;lt;&amp;lt;include&amp;gt;&amp;gt;" style="endArrow=open;endSize=12;dashed=1;html=1;rounded=0;exitX=1;exitY=0.5;exitDx=0;exitDy=0;entryX=0;entryY=0.5;entryDx=0;entryDy=0;fontSize=15;" parent="Vhi15tNVgUVpk-Ej3HNA-4" source="H-SZZCASCCpnRG1K_Njf-9" target="Vhi15tNVgUVpk-Ej3HNA-21" edge="1">
          <mxGeometry width="160" relative="1" as="geometry">
            <mxPoint x="210" y="489" as="sourcePoint" />
            <mxPoint x="380" y="649" as="targetPoint" />
          </mxGeometry>
        </mxCell>
        <mxCell id="H-SZZCASCCpnRG1K_Njf-11" value="Pick port" style="ellipse;whiteSpace=wrap;html=1;fontSize=17;" parent="Vhi15tNVgUVpk-Ej3HNA-4" vertex="1">
          <mxGeometry x="340" y="341" width="140" height="70" as="geometry" />
        </mxCell>
        <mxCell id="H-SZZCASCCpnRG1K_Njf-12" value="Display connected" style="ellipse;whiteSpace=wrap;html=1;fontSize=17;" parent="Vhi15tNVgUVpk-Ej3HNA-4" vertex="1">
          <mxGeometry x="599" y="341" width="140" height="70" as="geometry" />
        </mxCell>
        <mxCell id="hCU3SJ1g03FSpcKI6NLJ-24" value="&amp;lt;&amp;lt;include&amp;gt;&amp;gt;" style="endArrow=open;endSize=12;dashed=1;html=1;rounded=0;exitX=1;exitY=0.5;exitDx=0;exitDy=0;entryX=0;entryY=0.5;entryDx=0;entryDy=0;fontSize=15;" parent="Vhi15tNVgUVpk-Ej3HNA-4" source="H-SZZCASCCpnRG1K_Njf-11" target="H-SZZCASCCpnRG1K_Njf-12" edge="1">
          <mxGeometry width="160" relative="1" as="geometry">
            <mxPoint x="220" y="924.0000000000002" as="sourcePoint" />
            <mxPoint x="590" y="541" as="targetPoint" />
          </mxGeometry>
        </mxCell>
        <mxCell id="Vhi15tNVgUVpk-Ej3HNA-31" value="&amp;lt;&amp;lt;include&amp;gt;&amp;gt;" style="endArrow=open;endSize=12;dashed=1;html=1;rounded=0;exitX=1;exitY=0.5;exitDx=0;exitDy=0;entryX=0;entryY=0.5;entryDx=0;entryDy=0;fontSize=15;" parent="Vhi15tNVgUVpk-Ej3HNA-4" source="H-SZZCASCCpnRG1K_Njf-8" target="H-SZZCASCCpnRG1K_Njf-11" edge="1">
          <mxGeometry width="160" relative="1" as="geometry">
            <mxPoint x="140" y="468" as="sourcePoint" />
            <mxPoint x="270" y="450" as="targetPoint" />
          </mxGeometry>
        </mxCell>
        <mxCell id="_XIn4M-AWHzzu-cUTxGH-3" value="Setup wizard" style="ellipse;whiteSpace=wrap;html=1;fontSize=17;" parent="Vhi15tNVgUVpk-Ej3HNA-4" vertex="1">
          <mxGeometry x="60" y="478" width="140" height="70" as="geometry" />
        </mxCell>
        <mxCell id="_XIn4M-AWHzzu-cUTxGH-5" value="&amp;lt;&amp;lt;include&amp;gt;&amp;gt;" style="endArrow=open;endSize=12;dashed=1;html=1;rounded=0;exitX=1;exitY=0.5;exitDx=0;exitDy=0;entryX=0;entryY=0.5;entryDx=0;entryDy=0;fontSize=15;" parent="Vhi15tNVgUVpk-Ej3HNA-4" source="_XIn4M-AWHzzu-cUTxGH-3" target="_XIn4M-AWHzzu-cUTxGH-2" edge="1">
          <mxGeometry width="160" relative="1" as="geometry">
            <mxPoint x="200" y="193" as="sourcePoint" />
            <mxPoint x="360" y="163" as="targetPoint" />
          </mxGeometry>
        </mxCell>
        <mxCell id="_XIn4M-AWHzzu-cUTxGH-2" value="Configure Backlash" style="ellipse;whiteSpace=wrap;html=1;fontSize=17;" parent="Vhi15tNVgUVpk-Ej3HNA-4" vertex="1">
          <mxGeometry x="340" y="434" width="140" height="70" as="geometry" />
        </mxCell>
        <mxCell id="_XIn4M-AWHzzu-cUTxGH-8" value="Configure diameters" style="ellipse;whiteSpace=wrap;html=1;fontSize=17;" parent="Vhi15tNVgUVpk-Ej3HNA-4" vertex="1">
          <mxGeometry x="480" y="478" width="140" height="70" as="geometry" />
        </mxCell>
        <mxCell id="_XIn4M-AWHzzu-cUTxGH-9" value="&amp;lt;&amp;lt;include&amp;gt;&amp;gt;" style="endArrow=open;endSize=12;dashed=1;html=1;rounded=0;exitX=1;exitY=0.5;exitDx=0;exitDy=0;entryX=0;entryY=0.5;entryDx=0;entryDy=0;fontSize=15;" parent="Vhi15tNVgUVpk-Ej3HNA-4" source="_XIn4M-AWHzzu-cUTxGH-3" target="_XIn4M-AWHzzu-cUTxGH-8" edge="1">
          <mxGeometry width="160" relative="1" as="geometry">
            <mxPoint x="210" y="443" as="sourcePoint" />
            <mxPoint x="380" y="203" as="targetPoint" />
          </mxGeometry>
        </mxCell>
        <mxCell id="_XIn4M-AWHzzu-cUTxGH-11" value="Enter code" style="ellipse;whiteSpace=wrap;html=1;fontSize=17;" parent="Vhi15tNVgUVpk-Ej3HNA-4" vertex="1">
          <mxGeometry x="340" y="35" width="140" height="70" as="geometry" />
        </mxCell>
        <mxCell id="_XIn4M-AWHzzu-cUTxGH-13" value="Run code" style="ellipse;whiteSpace=wrap;html=1;fontSize=17;" parent="Vhi15tNVgUVpk-Ej3HNA-4" vertex="1">
          <mxGeometry x="427" y="102" width="140" height="70" as="geometry" />
        </mxCell>
        <mxCell id="_XIn4M-AWHzzu-cUTxGH-14" value="&amp;lt;&amp;lt;include&amp;gt;&amp;gt;" style="endArrow=open;endSize=12;dashed=1;html=1;rounded=0;entryX=0;entryY=0.5;entryDx=0;entryDy=0;exitX=1;exitY=0.5;exitDx=0;exitDy=0;fontSize=15;" parent="Vhi15tNVgUVpk-Ej3HNA-4" source="H-SZZCASCCpnRG1K_Njf-7" target="_XIn4M-AWHzzu-cUTxGH-13" edge="1">
          <mxGeometry width="160" relative="1" as="geometry">
            <mxPoint x="240" y="104" as="sourcePoint" />
            <mxPoint x="300" y="340" as="targetPoint" />
          </mxGeometry>
        </mxCell>
        <mxCell id="hCU3SJ1g03FSpcKI6NLJ-29" value="&amp;lt;&amp;lt;extend&amp;gt;&amp;gt;" style="endArrow=open;endSize=12;dashed=1;html=1;rounded=0;exitX=0;exitY=0.5;exitDx=0;exitDy=0;entryX=1;entryY=0.5;entryDx=0;entryDy=0;fontSize=15;" parent="Vhi15tNVgUVpk-Ej3HNA-4" source="H-SZZCASCCpnRG1K_Njf-10" target="_XIn4M-AWHzzu-cUTxGH-13" edge="1">
          <mxGeometry width="160" relative="1" as="geometry">
            <mxPoint x="447" y="404.29" as="sourcePoint" />
            <mxPoint x="327" y="404.29" as="targetPoint" />
          </mxGeometry>
        </mxCell>
        <mxCell id="_XIn4M-AWHzzu-cUTxGH-17" value="Clear program" style="ellipse;whiteSpace=wrap;html=1;fontSize=17;" parent="Vhi15tNVgUVpk-Ej3HNA-4" vertex="1">
          <mxGeometry x="340" y="164" width="140" height="70" as="geometry" />
        </mxCell>
        <mxCell id="_XIn4M-AWHzzu-cUTxGH-19" value="Reset turtle" style="ellipse;whiteSpace=wrap;html=1;fontSize=17;" parent="Vhi15tNVgUVpk-Ej3HNA-4" vertex="1">
          <mxGeometry x="430" y="244" width="140" height="70" as="geometry" />
        </mxCell>
        <mxCell id="H-SZZCASCCpnRG1K_Njf-7" value="Write program" style="ellipse;whiteSpace=wrap;html=1;fontSize=17;" parent="Vhi15tNVgUVpk-Ej3HNA-4" vertex="1">
          <mxGeometry x="60" y="105" width="140" height="70" as="geometry" />
        </mxCell>
        <mxCell id="_XIn4M-AWHzzu-cUTxGH-12" value="&amp;lt;&amp;lt;include&amp;gt;&amp;gt;" style="endArrow=open;endSize=12;dashed=1;html=1;rounded=0;exitX=1;exitY=0.5;exitDx=0;exitDy=0;entryX=0;entryY=0.5;entryDx=0;entryDy=0;fontSize=15;" parent="Vhi15tNVgUVpk-Ej3HNA-4" source="H-SZZCASCCpnRG1K_Njf-7" target="_XIn4M-AWHzzu-cUTxGH-11" edge="1">
          <mxGeometry width="160" relative="1" as="geometry">
            <mxPoint x="250" y="289" as="sourcePoint" />
            <mxPoint x="310" y="203" as="targetPoint" />
          </mxGeometry>
        </mxCell>
        <mxCell id="_XIn4M-AWHzzu-cUTxGH-18" value="&amp;lt;&amp;lt;extend&amp;gt;&amp;gt;" style="endArrow=open;endSize=12;dashed=1;html=1;rounded=0;exitX=0;exitY=0.5;exitDx=0;exitDy=0;entryX=1;entryY=0.5;entryDx=0;entryDy=0;fontSize=15;" parent="Vhi15tNVgUVpk-Ej3HNA-4" source="_XIn4M-AWHzzu-cUTxGH-17" target="H-SZZCASCCpnRG1K_Njf-7" edge="1">
          <mxGeometry width="160" relative="1" as="geometry">
            <mxPoint x="70" y="481.28999999999996" as="sourcePoint" />
            <mxPoint x="220" y="164" as="targetPoint" />
          </mxGeometry>
        </mxCell>
        <mxCell id="_XIn4M-AWHzzu-cUTxGH-20" value="&amp;lt;&amp;lt;extend&amp;gt;&amp;gt;" style="endArrow=open;endSize=12;dashed=1;html=1;rounded=0;exitX=0;exitY=0.5;exitDx=0;exitDy=0;entryX=1;entryY=0.5;entryDx=0;entryDy=0;fontSize=15;" parent="Vhi15tNVgUVpk-Ej3HNA-4" source="_XIn4M-AWHzzu-cUTxGH-19" target="H-SZZCASCCpnRG1K_Njf-7" edge="1">
          <mxGeometry x="0.1573" y="13" width="160" relative="1" as="geometry">
            <mxPoint x="70" y="568.29" as="sourcePoint" />
            <mxPoint x="250" y="144" as="targetPoint" />
            <mxPoint as="offset" />
          </mxGeometry>
        </mxCell>
        <mxCell id="OIAMS5ipWdD0QR5IxeRq-2" value="Configure axle" style="ellipse;whiteSpace=wrap;html=1;fontSize=17;" parent="Vhi15tNVgUVpk-Ej3HNA-4" vertex="1">
          <mxGeometry x="340" y="524" width="140" height="70" as="geometry" />
        </mxCell>
        <mxCell id="OIAMS5ipWdD0QR5IxeRq-1" value="&amp;lt;&amp;lt;include&amp;gt;&amp;gt;" style="endArrow=open;endSize=12;dashed=1;html=1;rounded=0;entryX=0;entryY=0.5;entryDx=0;entryDy=0;exitX=1;exitY=0.5;exitDx=0;exitDy=0;fontSize=15;" parent="Vhi15tNVgUVpk-Ej3HNA-4" source="_XIn4M-AWHzzu-cUTxGH-3" target="OIAMS5ipWdD0QR5IxeRq-2" edge="1">
          <mxGeometry width="160" relative="1" as="geometry">
            <mxPoint x="270" y="548" as="sourcePoint" />
            <mxPoint x="910" y="363" as="targetPoint" />
          </mxGeometry>
        </mxCell>
        <mxCell id="OIAMS5ipWdD0QR5IxeRq-6" value="Change font size" style="ellipse;whiteSpace=wrap;html=1;fontSize=17;" parent="Vhi15tNVgUVpk-Ej3HNA-4" vertex="1">
          <mxGeometry x="60" y="727" width="140" height="70" as="geometry" />
        </mxCell>
        <mxCell id="OIAMS5ipWdD0QR5IxeRq-5" value="Select font size" style="ellipse;whiteSpace=wrap;html=1;fontSize=17;" parent="Vhi15tNVgUVpk-Ej3HNA-4" vertex="1">
          <mxGeometry x="340" y="727" width="140" height="70" as="geometry" />
        </mxCell>
        <mxCell id="OIAMS5ipWdD0QR5IxeRq-7" value="&amp;lt;&amp;lt;include&amp;gt;&amp;gt;" style="endArrow=open;endSize=12;dashed=1;html=1;rounded=0;exitX=1;exitY=0.5;exitDx=0;exitDy=0;entryX=0;entryY=0.5;entryDx=0;entryDy=0;fontSize=15;" parent="Vhi15tNVgUVpk-Ej3HNA-4" source="OIAMS5ipWdD0QR5IxeRq-6" target="OIAMS5ipWdD0QR5IxeRq-5" edge="1">
          <mxGeometry width="160" relative="1" as="geometry">
            <mxPoint x="211" y="653" as="sourcePoint" />
            <mxPoint x="381" y="813" as="targetPoint" />
          </mxGeometry>
        </mxCell>
        <mxCell id="OIAMS5ipWdD0QR5IxeRq-9" value="Save code" style="ellipse;whiteSpace=wrap;html=1;fontSize=17;" parent="Vhi15tNVgUVpk-Ej3HNA-4" vertex="1">
          <mxGeometry x="60" y="828" width="140" height="70" as="geometry" />
        </mxCell>
        <mxCell id="OIAMS5ipWdD0QR5IxeRq-10" value="Pick filename" style="ellipse;whiteSpace=wrap;html=1;fontSize=17;" parent="Vhi15tNVgUVpk-Ej3HNA-4" vertex="1">
          <mxGeometry x="340" y="828" width="140" height="70" as="geometry" />
        </mxCell>
        <mxCell id="OIAMS5ipWdD0QR5IxeRq-11" value="&amp;lt;&amp;lt;include&amp;gt;&amp;gt;" style="endArrow=open;endSize=12;dashed=1;html=1;rounded=0;exitX=1;exitY=0.5;exitDx=0;exitDy=0;entryX=0;entryY=0.5;entryDx=0;entryDy=0;fontSize=15;" parent="Vhi15tNVgUVpk-Ej3HNA-4" source="OIAMS5ipWdD0QR5IxeRq-9" target="OIAMS5ipWdD0QR5IxeRq-10" edge="1">
          <mxGeometry width="160" relative="1" as="geometry">
            <mxPoint x="211" y="754" as="sourcePoint" />
            <mxPoint x="381" y="914" as="targetPoint" />
          </mxGeometry>
        </mxCell>
        <mxCell id="OIAMS5ipWdD0QR5IxeRq-13" value="Load code" style="ellipse;whiteSpace=wrap;html=1;fontSize=17;" parent="Vhi15tNVgUVpk-Ej3HNA-4" vertex="1">
          <mxGeometry x="60" y="937" width="140" height="70" as="geometry" />
        </mxCell>
        <mxCell id="OIAMS5ipWdD0QR5IxeRq-14" value="Pick file" style="ellipse;whiteSpace=wrap;html=1;fontSize=17;" parent="Vhi15tNVgUVpk-Ej3HNA-4" vertex="1">
          <mxGeometry x="340" y="937" width="140" height="70" as="geometry" />
        </mxCell>
        <mxCell id="OIAMS5ipWdD0QR5IxeRq-15" value="&amp;lt;&amp;lt;include&amp;gt;&amp;gt;" style="endArrow=open;endSize=12;dashed=1;html=1;rounded=0;exitX=1;exitY=0.5;exitDx=0;exitDy=0;entryX=0;entryY=0.5;entryDx=0;entryDy=0;fontSize=15;" parent="Vhi15tNVgUVpk-Ej3HNA-4" source="OIAMS5ipWdD0QR5IxeRq-13" target="OIAMS5ipWdD0QR5IxeRq-14" edge="1">
          <mxGeometry width="160" relative="1" as="geometry">
            <mxPoint x="211" y="863" as="sourcePoint" />
            <mxPoint x="381" y="1023" as="targetPoint" />
          </mxGeometry>
        </mxCell>
        <mxCell id="OIAMS5ipWdD0QR5IxeRq-17" value="Insert character/shape" style="ellipse;whiteSpace=wrap;html=1;fontSize=17;" parent="Vhi15tNVgUVpk-Ej3HNA-4" vertex="1">
          <mxGeometry x="60" y="1049" width="140" height="70" as="geometry" />
        </mxCell>
        <mxCell id="OIAMS5ipWdD0QR5IxeRq-18" value="Pick shape/character" style="ellipse;whiteSpace=wrap;html=1;fontSize=17;" parent="Vhi15tNVgUVpk-Ej3HNA-4" vertex="1">
          <mxGeometry x="340" y="1049" width="140" height="70" as="geometry" />
        </mxCell>
        <mxCell id="OIAMS5ipWdD0QR5IxeRq-19" value="&amp;lt;&amp;lt;include&amp;gt;&amp;gt;" style="endArrow=open;endSize=12;dashed=1;html=1;rounded=0;exitX=1;exitY=0.5;exitDx=0;exitDy=0;entryX=0;entryY=0.5;entryDx=0;entryDy=0;fontSize=15;" parent="Vhi15tNVgUVpk-Ej3HNA-4" source="OIAMS5ipWdD0QR5IxeRq-17" target="OIAMS5ipWdD0QR5IxeRq-18" edge="1">
          <mxGeometry width="160" relative="1" as="geometry">
            <mxPoint x="211" y="975" as="sourcePoint" />
            <mxPoint x="381" y="1135" as="targetPoint" />
          </mxGeometry>
        </mxCell>
        <mxCell id="OIAMS5ipWdD0QR5IxeRq-21" value="Read About page" style="ellipse;whiteSpace=wrap;html=1;fontSize=17;" parent="Vhi15tNVgUVpk-Ej3HNA-4" vertex="1">
          <mxGeometry x="60" y="1159" width="140" height="70" as="geometry" />
        </mxCell>
        <mxCell id="OIAMS5ipWdD0QR5IxeRq-22" value="Open About window" style="ellipse;whiteSpace=wrap;html=1;fontSize=17;" parent="Vhi15tNVgUVpk-Ej3HNA-4" vertex="1">
          <mxGeometry x="340" y="1159" width="140" height="70" as="geometry" />
        </mxCell>
        <mxCell id="OIAMS5ipWdD0QR5IxeRq-23" value="&amp;lt;&amp;lt;include&amp;gt;&amp;gt;" style="endArrow=open;endSize=12;dashed=1;html=1;rounded=0;exitX=1;exitY=0.5;exitDx=0;exitDy=0;entryX=0;entryY=0.5;entryDx=0;entryDy=0;fontSize=15;" parent="Vhi15tNVgUVpk-Ej3HNA-4" source="OIAMS5ipWdD0QR5IxeRq-21" target="OIAMS5ipWdD0QR5IxeRq-22" edge="1">
          <mxGeometry width="160" relative="1" as="geometry">
            <mxPoint x="211" y="1085" as="sourcePoint" />
            <mxPoint x="381" y="1245" as="targetPoint" />
          </mxGeometry>
        </mxCell>
        <mxCell id="_XIn4M-AWHzzu-cUTxGH-10" style="edgeStyle=orthogonalEdgeStyle;rounded=0;orthogonalLoop=1;jettySize=auto;html=1;entryX=0;entryY=0.5;entryDx=0;entryDy=0;exitX=0.5;exitY=0.5;exitDx=0;exitDy=0;exitPerimeter=0;" parent="1" source="H-SZZCASCCpnRG1K_Njf-2" target="_XIn4M-AWHzzu-cUTxGH-3" edge="1">
          <mxGeometry relative="1" as="geometry">
            <Array as="points">
              <mxPoint x="110" y="578" />
              <mxPoint x="110" y="533" />
            </Array>
            <mxPoint x="60" y="71" as="sourcePoint" />
            <mxPoint x="170" y="226" as="targetPoint" />
          </mxGeometry>
        </mxCell>
        <mxCell id="OIAMS5ipWdD0QR5IxeRq-8" style="edgeStyle=orthogonalEdgeStyle;rounded=0;orthogonalLoop=1;jettySize=auto;html=1;entryX=0;entryY=0.5;entryDx=0;entryDy=0;exitX=0.5;exitY=0.5;exitDx=0;exitDy=0;exitPerimeter=0;" parent="1" source="H-SZZCASCCpnRG1K_Njf-2" target="OIAMS5ipWdD0QR5IxeRq-6" edge="1">
          <mxGeometry relative="1" as="geometry">
            <Array as="points">
              <mxPoint x="110" y="578" />
              <mxPoint x="110" y="782" />
            </Array>
            <mxPoint x="110" y="721" as="sourcePoint" />
            <mxPoint x="200" y="1002" as="targetPoint" />
          </mxGeometry>
        </mxCell>
        <mxCell id="OIAMS5ipWdD0QR5IxeRq-12" style="edgeStyle=orthogonalEdgeStyle;rounded=0;orthogonalLoop=1;jettySize=auto;html=1;entryX=0;entryY=0.5;entryDx=0;entryDy=0;exitX=0.5;exitY=0.5;exitDx=0;exitDy=0;exitPerimeter=0;" parent="1" source="H-SZZCASCCpnRG1K_Njf-2" target="OIAMS5ipWdD0QR5IxeRq-9" edge="1">
          <mxGeometry relative="1" as="geometry">
            <Array as="points">
              <mxPoint x="110" y="578" />
              <mxPoint x="110" y="883" />
            </Array>
            <mxPoint x="35" y="618" as="sourcePoint" />
            <mxPoint x="200" y="1129" as="targetPoint" />
          </mxGeometry>
        </mxCell>
        <mxCell id="OIAMS5ipWdD0QR5IxeRq-16" style="edgeStyle=orthogonalEdgeStyle;rounded=0;orthogonalLoop=1;jettySize=auto;html=1;entryX=0;entryY=0.5;entryDx=0;entryDy=0;exitX=0.5;exitY=0.5;exitDx=0;exitDy=0;exitPerimeter=0;" parent="1" source="H-SZZCASCCpnRG1K_Njf-2" target="OIAMS5ipWdD0QR5IxeRq-13" edge="1">
          <mxGeometry relative="1" as="geometry">
            <Array as="points">
              <mxPoint x="110" y="578" />
              <mxPoint x="110" y="992" />
            </Array>
            <mxPoint x="35" y="731" as="sourcePoint" />
            <mxPoint x="200" y="1242" as="targetPoint" />
          </mxGeometry>
        </mxCell>
        <mxCell id="OIAMS5ipWdD0QR5IxeRq-20" style="edgeStyle=orthogonalEdgeStyle;rounded=0;orthogonalLoop=1;jettySize=auto;html=1;entryX=0;entryY=0.5;entryDx=0;entryDy=0;exitX=0.5;exitY=0.5;exitDx=0;exitDy=0;exitPerimeter=0;" parent="1" source="H-SZZCASCCpnRG1K_Njf-2" target="OIAMS5ipWdD0QR5IxeRq-17" edge="1">
          <mxGeometry relative="1" as="geometry">
            <Array as="points">
              <mxPoint x="110" y="578" />
              <mxPoint x="110" y="1104" />
            </Array>
            <mxPoint x="35" y="851" as="sourcePoint" />
            <mxPoint x="200" y="1362" as="targetPoint" />
          </mxGeometry>
        </mxCell>
        <mxCell id="OIAMS5ipWdD0QR5IxeRq-24" style="edgeStyle=orthogonalEdgeStyle;rounded=0;orthogonalLoop=1;jettySize=auto;html=1;entryX=0;entryY=0.5;entryDx=0;entryDy=0;exitX=0.5;exitY=0.5;exitDx=0;exitDy=0;exitPerimeter=0;" parent="1" source="H-SZZCASCCpnRG1K_Njf-2" target="OIAMS5ipWdD0QR5IxeRq-21" edge="1">
          <mxGeometry relative="1" as="geometry">
            <Array as="points">
              <mxPoint x="110" y="578" />
              <mxPoint x="110" y="1214" />
            </Array>
            <mxPoint x="35" y="961" as="sourcePoint" />
            <mxPoint x="200" y="1472" as="targetPoint" />
          </mxGeometry>
        </mxCell>
      </root>
    </mxGraphModel>
  </diagram>
</mxfile>
